<svg xmlns="http://www.w3.org/2000/svg" xml:space="preserve" width="1500" height="1500" data-id="lg_BpVGqTdI056azuEiqd" data-version="1" viewBox="0 0 1500 1500"><path fill="#fff" stroke="transparent" d="M0 0h1500v1500H0z"/><g data-padding="20"><g transform="translate(-569.073 -584.039)scale(1.71898)"><path fill="#636363" d="M539.723 790.068h-15.2a6.15 6.15 0 0 1-6.14-6.14v-15.19a6.15 6.15 0 0 1 6.15-6.14h15.18a6.15 6.15 0 0 1 6.14 6.15v15.18a6.15 6.15 0 0 1-6.14 6.14m-15.2-23c-.92 0-1.68.75-1.68 1.68v15.18c0 .93.76 1.68 1.69 1.68h15.18c.93 0 1.68-.75 1.68-1.68v-15.19c0-.92-.75-1.68-1.68-1.68Zm7.61-27.66a4.18 4.18 0 1 1 0-8.34 4.18 4.18 0 0 1 0 8.35m0 8.66a3.14 3.14 0 1 1-.354-6.27 3.14 3.14 0 0 1 .354 6.27m0 2.48a2.09 2.09 0 1 0 0 4.18 2.09 2.09 0 1 0 0-4.18m-25.93-.4a4.175 4.175 0 1 1 1.08-4.04 4.17 4.17 0 0 1-1.08 4.03m6.13 6.13a3.14 3.14 0 1 1-4.654-4.217 3.14 3.14 0 0 1 4.654 4.217m1.74 4.7a2.1 2.1 0 1 1 2.96-2.95 2.1 2.1 0 0 1-2.96 2.96m-18.61 15.08a4.18 4.18 0 1 1-8.34-.01 4.18 4.18 0 0 1 8.35.01m8.65 0a3.14 3.14 0 0 1-6.27 0 3.14 3.14 0 0 1 6.27 0m4.58 2.11a2.1 2.1 0 1 1 0-4.2 2.1 2.1 0 0 1 0 4.2m-2.49 23.82a4.18 4.18 0 1 1-5.791 6.03 4.18 4.18 0 0 1 5.79-6.03m6.12-6.12a3.132 3.132 0 1 1-4.43 4.43 3.132 3.132 0 0 1 4.43-4.43m4.7-1.75a2.1 2.1 0 1 1-2.95-2.96 2.1 2.1 0 0 1 2.96 2.96m15.08 18.6a4.17 4.17 0 1 1 0 8.34 4.175 4.175 0 1 1 0-8.35m0-8.64a3.135 3.135 0 1 1 0 6.27 3.135 3.135 0 0 1 0-6.27m2.11-4.57a2.1 2.1 0 1 1-4.18 0 2.1 2.1 0 0 1 4.17 0m23.82 2.48a4.172 4.172 0 1 1 5.9 5.9 4.172 4.172 0 0 1-5.9-5.9m-6.11-6.11a3.132 3.132 0 1 1 4.43 4.43 3.132 3.132 0 0 1-4.43-4.43m-1.76-4.7a2.1 2.1 0 0 1 0 2.95 2.1 2.1 0 0 1-2.97-2.96 2.1 2.1 0 0 1 2.97 0m18.61-15.09a4.17 4.17 0 1 1 8.34 0 4.175 4.175 0 1 1-8.35 0m-8.64 0a3.13 3.13 0 1 1 6.26 0 3.13 3.13 0 0 1-6.26 0m-4.56-2.1a2.1 2.1 0 0 1-.01 4.2 2.1 2.1 0 0 1 0-4.2m2.48-23.83a4.172 4.172 0 1 1 5.9-5.9 4.172 4.172 0 0 1-5.9 5.9m-6.11 6.13a3.136 3.136 0 1 1 4.44-4.43 3.136 3.136 0 0 1-4.44 4.43m-4.7 1.75a2.1 2.1 0 1 1 2.96 2.97 2.1 2.1 0 1 1-2.97-2.97m-28.8-15.95a4.18 4.18 0 1 1-3.401-7.636 4.18 4.18 0 0 1 3.402 7.636m3.23 8.03a3.14 3.14 0 1 1-2.463-5.777 3.14 3.14 0 0 1 2.463 5.777m1.72 2.14a2.09 2.09 0 1 0 0 4.18 2.09 2.09 0 1 0 0-4.18m-24.97 9.48a4.176 4.176 0 1 1-7.68-3.28 4.176 4.176 0 0 1 7.68 3.28m7.97 3.39a3.14 3.14 0 1 1-5.853-2.276 3.14 3.14 0 0 1 5.853 2.276m3.37 3.7a2.1 2.1 0 1 1 1.433-3.948 2.1 2.1 0 0 1-1.433 3.948m-11.62 20.95a4.18 4.18 0 1 1-7.603 3.475 4.18 4.18 0 0 1 7.603-3.475m8.04-3.23a3.14 3.14 0 0 1-5.81 2.34 3.14 3.14 0 0 1 5.8-2.34m5.03.24a2.1 2.1 0 1 1-1.892-3.75 2.1 2.1 0 0 1 1.892 3.75m6.6 23.03a4.176 4.176 0 1 1-3.28 7.68 4.176 4.176 0 0 1 3.28-7.68m3.38-7.97a3.14 3.14 0 1 1-2.102 5.918 3.14 3.14 0 0 1 2.102-5.918m3.71-3.38a2.1 2.1 0 1 1-3.948-1.433 2.1 2.1 0 0 1 3.948 1.433m20.96 11.62a4.18 4.18 0 0 1 3.12 7.74 4.18 4.18 0 0 1-3.12-7.74m-2.07-8.25a3.13 3.13 0 1 0 0 6.26 3.13 3.13 0 1 0 0-6.26m-.93-4.81a2.1 2.1 0 1 1-3.75 1.892 2.1 2.1 0 0 1 3.75-1.892m23.03-6.59a4.176 4.176 0 1 1 7.68 3.28 4.176 4.176 0 0 1-7.68-3.28m-7.97-3.39a3.13 3.13 0 1 1 5.794 2.37 3.13 3.13 0 0 1-5.794-2.37m-3.39-3.71a2.1 2.1 0 1 1-1.261 4.006 2.1 2.1 0 0 1 1.26-4.006m11.63-20.96a4.18 4.18 0 0 1 7.74-3.12 4.173 4.173 0 0 1-7.74 3.12m-8.03 3.23a3.132 3.132 0 0 1 5.81-2.34 3.13 3.13 0 0 1-5.8 2.34m-5.03-.22a2.1 2.1 0 1 1 1.57 3.89 2.102 2.102 0 0 1-1.57-3.9m-6.6-23.02a4.18 4.18 0 1 1 2.926-7.832 4.18 4.18 0 0 1-2.925 7.832m-3.4 7.97a3.138 3.138 0 1 1 2.47-5.77 3.138 3.138 0 0 1-2.47 5.77m-3.7 3.37a2.1 2.1 0 1 1 3.948 1.433 2.1 2.1 0 0 1-3.948-1.433"/><rect width="458.455" height="54.24" x="137.876" y="349.688" fill="none" rx="0" ry="0" transform="translate(451.28 399.78)"/><path fill="#636363" d="M604.753 760.708q6.58 0 10.08 3.74 3.5 3.75 3.5 10.75 0 8.12-3.79 12.44t-10.89 4.32q-1.97 0-4.78-.08-2.81-.07-5.21-.21h-.05l.24-9.27-.24-21.5h.05Zm-.48 28.03q4.9 0 7.51-3.19 2.62-3.19 2.62-9.53 0-12.1-9.94-12.1-3.02 0-6.96.2l-.19 17.95.14 6.38q1.49.15 3.58.22t3.24.07m33.56 2.93.24-14.93q.05-1.97-.91-3.07-.96-1.11-2.83-1.11-3.17 0-6.48 3.41l-.1 6.05.24 9.65h-3.79l.29-9.36-.24-24 3.79-.34-.19 14.83h.29q2.97-2.64 6.09-3.4 3.65 0 5.52 1.68t1.83 4.8l-.1 6.24.19 9.55Zm18.38-22.37q3.12 0 4.92 1.54 1.8 1.53 1.8 4.22 0 .82-.29 5.9-.29 5.09-.29 5.96 0 1.05.34 1.46.33.41 1.15.41.72 0 1.63-.29l.38.34-.38 2.16q-1.39.81-2.74.96-1.48-.15-2.37-1.06t-.94-2.5h-.33q-2.6 2.64-5.14 3.6-3.22 0-5.02-1.6-1.8-1.61-1.8-4.4 0-2.11 1.13-3.36 1.13-1.24 3.34-1.77l7.77-1.83.05-3.12q0-1.87-.98-2.88-.99-1-2.81-1-1.63 0-3.26.76-1.64.77-3.51 2.4l-.38-.19-.48-2.73q3.98-2.98 8.21-2.98m3.12 12.19-6.96 1.68q-.96.29-1.4.79-.43.51-.43 1.52 0 1.58.89 2.47t2.38.89q2.64 0 5.37-3.41Zm25.44 10.17.24-14.93q.04-1.97-.92-3.07-.96-1.11-2.83-1.11-3.02 0-6.53 3.41v6.05l.2 9.65h-3.8l.24-9.31-.19-12.44 3.6-.33v3.21h.29q2.98-2.64 6.1-3.4 3.6 0 5.49 1.68 1.9 1.68 1.85 4.8l-.1 6.24.2 9.55Zm18.38-22.36q3.12 0 4.92 1.54 1.8 1.53 1.8 4.22 0 .82-.29 5.9-.29 5.09-.29 5.96 0 1.05.34 1.46t1.15.41q.72 0 1.63-.29l.39.34-.39 2.16q-1.39.81-2.73.96-1.49-.15-2.38-1.06t-.93-2.5h-.34q-2.59 2.64-5.14 3.6-3.21 0-5.01-1.6-1.8-1.61-1.8-4.4 0-2.11 1.13-3.36 1.12-1.24 3.33-1.77l7.78-1.83.05-3.12q0-1.87-.99-2.88-.98-1-2.81-1-1.63 0-3.26.76-1.63.77-3.5 2.4l-.39-.19-.48-2.73q3.99-2.98 8.21-2.98m3.12 12.19-6.96 1.68q-.96.29-1.39.79-.43.51-.43 1.52 0 1.58.88 2.47.89.89 2.38.89 2.64 0 5.38-3.41Zm39.07 10.17.24-14.93q.05-1.97-.91-3.07-.96-1.11-2.83-1.11-3.07 0-6.39 3.32l-.09 6.24.19 9.55h-3.89l.29-14.93q.05-1.97-.91-3.07-.96-1.11-2.83-1.11-3.03 0-6.53 3.41v6.05l.19 9.65h-3.79l.24-9.31-.19-12.44 3.6-.33v3.21h.28q2.98-2.64 6.1-3.4 2.69 0 4.42.93 1.72.94 2.44 2.71h.29q3.03-2.73 6.48-3.64 3.65 0 5.52 1.68t1.83 4.8l-.1 6.24.19 9.55Zm11.2.01.19-9.31-.15-12.44 3.7-.33-.1 12.43.1 9.65Zm1.96-31.83q.96 0 1.54.58t.58 1.58q0 1.06-.6 1.68-.6.63-1.66.63-1.01 0-1.56-.58-.55-.57-.55-1.63 0-1.01.6-1.63.6-.63 1.65-.63m16.51 28.9q1.58 0 3.45-.96l.43.29-.38 2.49q-2.59 1.2-4.8 1.4-2.74-.53-3.94-2.02t-1.2-4.32l.15-3.41-.05-9.93h-3.02l-.2-.29.24-2.26h2.93v-3.55l3.31-1.44.39.34-.1 4.65h6.53l.19.29-.24 2.26h-6.48l-.24 13q-.05 1.92.67 2.69t2.36.77m18.48-19.1q.57 0 1.24.09v3.7l-.43.14q-.81-.24-1.77-.24-1.59 0-2.91 1.27-1.32 1.28-2.61 4.06l-.05 3.36.24 9.65h-3.79l.24-9.31-.2-12.44 3.6-.33-.04 4.51h.28q1.35-2.4 2.98-3.43t3.22-1.03m12.67-.34q3.12 0 4.92 1.54 1.8 1.53 1.8 4.22 0 .82-.29 5.9-.29 5.09-.29 5.96 0 1.05.34 1.46.33.41 1.15.41.72 0 1.63-.29l.39.34-.39 2.16q-1.39.81-2.73.96-1.49-.15-2.38-1.06t-.94-2.5h-.33q-2.59 2.64-5.14 3.6-3.21 0-5.01-1.6-1.8-1.61-1.8-4.4 0-2.11 1.12-3.36 1.13-1.24 3.34-1.77l7.78-1.83.04-3.12q0-1.87-.98-2.88-.98-1-2.81-1-1.63 0-3.26.76-1.63.77-3.51 2.4l-.38-.19-.48-2.73q3.98-2.98 8.21-2.98m3.12 12.19-6.96 1.68q-.96.29-1.39.79-.44.51-.44 1.52 0 1.58.89 2.47t2.38.89q2.64 0 5.37-3.41Zm24.29-20.6-.24 21.17.19 9.6h-3.89l.24-9.27-.24-21.5Zm21.94 30.77.24-14.93q.05-1.97-.91-3.07-.96-1.11-2.83-1.11-3.03 0-6.53 3.41v6.05l.19 9.65h-3.79l.24-9.31-.19-12.44 3.6-.33v3.21h.29q2.97-2.64 6.09-3.4 3.6 0 5.5 1.68 1.89 1.68 1.85 4.8l-.1 6.24.19 9.55Zm20.34-33.79q1.73 0 3.75.43l-.29 2.97-.29.24q-1.73-.86-3.5-.86-1.87 0-2.88 1.18-1.01 1.17-1.06 3.48l-.05 4.41h5.76l.15.29-.24 2.26h-5.71l-.1 9.74.24 9.65h-3.79l.29-9.36-.1-10.03h-3.31l-.19-.29.24-2.26h3.26l-.05-3.84q-.05-3.89 2.02-5.95 2.06-2.06 5.85-2.06m13.54 11.42q4.46 0 6.94 2.9 2.47 2.91 2.47 8.19 0 5.57-2.59 8.61-2.6 3.05-7.4 3.05-4.51 0-6.98-2.9-2.47-2.91-2.47-8.19 0-5.56 2.61-8.61 2.62-3.05 7.42-3.05m-.24 2.69q-3.02 0-4.61 2.06-1.58 2.07-1.58 6.05 0 4.61 1.56 6.91 1.56 2.31 4.53 2.31 3.03 0 4.61-2.02 1.59-2.02 1.59-6.05 0-4.56-1.56-6.91t-4.54-2.35m22.52 16.76q1.59 0 3.46-.96l.43.29-.38 2.49q-2.6 1.2-4.8 1.4-2.74-.53-3.94-2.02t-1.2-4.32l.14-3.41-.04-9.93h-3.03l-.19-.29.24-2.26h2.93v-3.55l3.31-1.44.38.34-.09 4.65h6.53l.19.29-.24 2.26h-6.48l-.24 13q-.05 1.92.67 2.69t2.35.77m23.9-8.27-13.78.05v.1q0 4.03 1.82 6.19 1.83 2.16 5.19 2.16 1.68 0 3.36-.55t3.07-1.56l.38.29-.57 3.26q-3.36 1.63-6.72 1.63-4.71 0-7.39-3-2.69-3-2.69-8.23 0-5.28 2.69-8.4 2.68-3.12 7.24-3.12 3.84 0 5.96 2.18 2.11 2.19 2.11 6.08 0 1.29-.19 2.44Zm-7.4-8.49q-2.4 0-4 1.56-1.61 1.56-2.14 4.39l10.61-.19.09-.67q0-2.45-1.17-3.77-1.18-1.32-3.39-1.32m21.94-2.69q1.49 0 3.1.36 1.6.36 2.8.94l-.67 3.31-.43.14q-2.5-1.63-4.94-1.63-2.84 0-4.42 2.16t-1.58 6.05 1.65 6.12q1.66 2.23 4.59 2.23 1.29 0 2.71-.43 1.41-.43 2.66-1.2l.43.24-.43 3.21q-2.93 1.25-5.85 1.25-4.37 0-6.87-3-2.49-3-2.49-8.23 0-5.33 2.61-8.42 2.62-3.1 7.13-3.1m24.38 22.38.24-14.93q.05-1.97-.91-3.07-.96-1.11-2.83-1.11-3.17 0-6.48 3.41l-.1 6.05.24 9.65h-3.79l.29-9.36-.24-24 3.79-.34-.19 14.83h.29q2.97-2.64 6.09-3.4 3.65 0 5.52 1.68 1.88 1.68 1.83 4.8l-.1 6.24.19 9.55Z"/></g><path fill="transparent" stroke="transparent" stroke-width="1.783" d="M250 669.786h1000v160.428H250z"/></g></svg>